ffmpeg started on 2016-12-02 at 15:47:25
Report written to "Output/x264/results/ffmpeg/old_town_cross_2160p50veryslow4000k.log"
Command line:
Tools/ffmpeg/ffmpeg -benchmark -y -i Input/y4m/old_town_cross_2160p50.y4m -c:v libx264 -preset veryslow -b:v 4000k -an Output/x264/encoded/old_town_cross_2160p50veryslow4000k.mkv
ffmpeg version N-82227-gdb23fde Copyright (c) 2000-2016 the FFmpeg developers
  built with gcc 5.4.0 (Ubuntu 5.4.0-6ubuntu1~16.04.2) 20160609
  configuration: --prefix=/home/jaroslav/ffmpeg_build --pkg-config-flags=--static --extra-cflags=-I/home/jaroslav/ffmpeg_build/include --extra-ldflags=-L/home/jaroslav/ffmpeg_build/lib --bindir=/home/jaroslav/bin --enable-gpl --enable-libass --enable-libfdk-aac --enable-libfreetype --enable-libmp3lame --enable-libopus --enable-libtheora --enable-libvorbis --enable-libvpx --enable-libx264 --enable-libx265 --enable-nvenc --enable-libmfx --enable-libxvid --enable-libgsm --enable-libopencore-amrnb --enable-version3 --enable-nonfree
  libavutil      55. 35.100 / 55. 35.100
  libavcodec     57. 66.101 / 57. 66.101
  libavformat    57. 57.100 / 57. 57.100
  libavdevice    57.  2.100 / 57.  2.100
  libavfilter     6. 66.100 /  6. 66.100
  libswscale      4.  3.100 /  4.  3.100
  libswresample   2.  4.100 /  2.  4.100
  libpostproc    54.  2.100 / 54.  2.100
Input #0, yuv4mpegpipe, from 'Input/y4m/old_town_cross_2160p50.y4m':
  Duration: 00:00:10.00, start: 0.000000, bitrate: 4976642 kb/s
    Stream #0:0: Video: rawvideo (I420 / 0x30323449), yuv420p(progressive), 3840x2160, SAR 1:1 DAR 16:9, 50 fps, 50 tbr, 50 tbn, 50 tbc
[libx264 @ 0x3f32120] using SAR=1/1
[libx264 @ 0x3f32120] DPB size (16 frames, 518400 mbs) > level limit (5 frames, 184320 mbs)
[libx264 @ 0x3f32120] using cpu capabilities: MMX2 SSE2Fast SSSE3 SSE4.2 AVX FMA3 AVX2 LZCNT BMI2
[libx264 @ 0x3f32120] profile High, level 5.2
[libx264 @ 0x3f32120] 264 - core 148 - H.264/MPEG-4 AVC codec - Copyleft 2003-2016 - http://www.videolan.org/x264.html - options: cabac=1 ref=16 deblock=1:0:0 analyse=0x3:0x133 me=umh subme=10 psy=1 psy_rd=1.00:0.00 mixed_ref=1 me_range=24 chroma_me=1 trellis=2 8x8dct=1 cqm=0 deadzone=21,11 fast_pskip=1 chroma_qp_offset=-2 threads=6 lookahead_threads=1 sliced_threads=0 nr=0 decimate=1 interlaced=0 bluray_compat=0 constrained_intra=0 bframes=8 b_pyramid=2 b_adapt=2 b_bias=0 direct=3 weightb=1 open_gop=0 weightp=2 keyint=250 keyint_min=25 scenecut=40 intra_refresh=0 rc_lookahead=60 rc=abr mbtree=1 bitrate=4000 ratetol=1.0 qcomp=0.60 qpmin=0 qpmax=69 qpstep=4 ip_ratio=1.40 aq=1:1.00
Output #0, matroska, to 'Output/x264/encoded/old_town_cross_2160p50veryslow4000k.mkv':
  Metadata:
    encoder         : Lavf57.57.100
    Stream #0:0: Video: h264 (libx264) (H264 / 0x34363248), yuv420p, 3840x2160 [SAR 1:1 DAR 16:9], q=-1--1, 4000 kb/s, 50 fps, 1k tbn, 50 tbc
    Metadata:
      encoder         : Lavc57.66.101 libx264
    Side data:
      cpb: bitrate max/min/avg: 0/0/4000000 buffer size: 0 vbv_delay: -1
Stream mapping:
  Stream #0:0 -> #0:0 (rawvideo (native) -> h264 (libx264))
Press [q] to stop, [?] for help
frame=   60 fps=0.0 q=0.0 size=       0kB time=00:00:00.00 bitrate=N/A speed=   0x    frame=   72 fps=8.0 q=0.0 size=       0kB time=00:00:00.00 bitrate=N/A speed=   0x    frame=   77 fps=7.8 q=41.0 size=       1kB time=-00:00:00.01 bitrate=N/A speed=N/A    frame=   82 fps=6.9 q=45.0 size=       1kB time=00:00:00.08 bitrate=  72.7kbits/s speed=0.00679x    frame=   88 fps=6.8 q=48.0 size=       1kB time=00:00:00.20 bitrate=  29.3kbits/s speed=0.0156x    frame=   91 fps=6.1 q=48.0 size=       1kB time=00:00:00.26 bitrate=  22.6kbits/s speed=0.0176x    frame=   96 fps=6.3 q=47.0 size=       1kB time=00:00:00.36 bitrate=  16.3kbits/s speed=0.0236x    frame=   97 fps=6.1 q=46.0 size=       1kB time=00:00:00.38 bitrate=  15.5kbits/s speed=0.0238x    frame=  100 fps=5.7 q=44.0 size=       1kB time=00:00:00.44 bitrate=  13.4kbits/s speed=0.0249x    frame=  105 fps=5.6 q=43.0 size=       1kB time=00:00:00.54 bitrate=  10.9kbits/s speed=0.029x    frame=  107 fps=5.5 q=42.0 size=       1kB time=00:00:00.58 bitrate=  10.1kbits/s speed=0.0298x    frame=  108 fps=5.3 q=42.0 size=       1kB time=00:00:00.60 bitrate=   9.8kbits/s speed=0.0296x    frame=  113 fps=5.3 q=42.0 size=       1kB time=00:00:00.70 bitrate=   8.4kbits/s speed=0.033x    frame=  114 fps=5.1 q=42.0 size=       1kB time=00:00:00.72 bitrate=   8.2kbits/s speed=0.0325x    frame=  117 fps=5.0 q=41.0 size=       1kB time=00:00:00.78 bitrate=   7.5kbits/s speed=0.0335x    frame=  122 fps=4.9 q=41.0 size=       1kB time=00:00:00.88 bitrate=   6.7kbits/s speed=0.0356x    frame=  123 fps=4.8 q=41.0 size=       1kB time=00:00:00.90 bitrate=   6.5kbits/s speed=0.035x    frame=  126 fps=4.8 q=40.0 size=       1kB time=00:00:00.96 bitrate=   6.1kbits/s speed=0.0363x    frame=  128 fps=4.7 q=41.0 size=       1kB time=00:00:01.00 bitrate=   5.9kbits/s speed=0.0371x    frame=  129 fps=4.6 q=41.0 size=       1kB time=00:00:01.02 bitrate=   5.8kbits/s speed=0.0367x    frame=  131 fps=4.6 q=40.0 size=       1kB time=00:00:01.06 bitrate=   5.5kbits/s speed=0.0374x    frame=  132 fps=4.5 q=40.0 size=       1kB time=00:00:01.08 bitrate=   5.4kbits/s speed=0.0367x    frame=  135 fps=4.5 q=40.0 size=       1kB time=00:00:01.14 bitrate=   5.2kbits/s speed=0.0377x    frame=  137 fps=4.4 q=40.0 size=       1kB time=00:00:01.18 bitrate=   5.0kbits/s speed=0.038x    frame=  138 fps=4.3 q=40.0 size=       1kB time=00:00:01.20 bitrate=   4.9kbits/s speed=0.0377x    frame=  139 fps=4.3 q=40.0 size=       1kB time=00:00:01.22 bitrate=   4.8kbits/s speed=0.0377x    frame=  140 fps=4.2 q=40.0 size=       1kB time=00:00:01.24 bitrate=   4.7kbits/s speed=0.0373x    frame=  145 fps=4.2 q=40.0 size=       1kB time=00:00:01.34 bitrate=   4.4kbits/s speed=0.0392x    frame=  146 fps=4.1 q=40.0 size=       1kB time=00:00:01.36 bitrate=   4.3kbits/s speed=0.0382x    frame=  149 fps=4.0 q=40.0 size=       1kB time=00:00:01.42 bitrate=   4.1kbits/s speed=0.0382x    frame=  153 fps=4.0 q=40.0 size=       1kB time=00:00:01.50 bitrate=   3.9kbits/s speed=0.0392x    frame=  155 fps=3.9 q=39.0 size=       1kB time=00:00:01.54 bitrate=   3.8kbits/s speed=0.0388x    frame=  158 fps=3.8 q=39.0 size=       1kB time=00:00:01.60 bitrate=   3.7kbits/s speed=0.039x    frame=  161 fps=3.8 q=39.0 size=       1kB time=00:00:01.66 bitrate=   3.5kbits/s speed=0.0394x    frame=  164 fps=3.8 q=39.0 size=       1kB time=00:00:01.72 bitrate=   3.4kbits/s speed=0.0394x    frame=  167 fps=3.7 q=39.0 size=       1kB time=00:00:01.78 bitrate=   3.3kbits/s speed=0.0394x    frame=  170 fps=3.7 q=39.0 size=       1kB time=00:00:01.84 bitrate=   3.2kbits/s speed=0.0397x    frame=  173 fps=3.6 q=39.0 size=       1kB time=00:00:01.90 bitrate=   3.1kbits/s speed=0.0399x    frame=  176 fps=3.6 q=39.0 size=       1kB time=00:00:01.96 bitrate=   3.0kbits/s speed=0.0397x    frame=  182 fps=3.5 q=39.0 size=       1kB time=00:00:02.08 bitrate=   2.8kbits/s speed=0.0402x    frame=  183 fps=3.5 q=39.0 size=       1kB time=00:00:02.10 bitrate=   2.8kbits/s speed=0.0401x    frame=  186 fps=3.5 q=39.0 size=       1kB time=00:00:02.16 bitrate=   2.7kbits/s speed=0.0406x    frame=  188 fps=3.5 q=39.0 size=       1kB time=00:00:02.20 bitrate=   2.7kbits/s speed=0.0405x    frame=  189 fps=3.4 q=39.0 size=       1kB time=00:00:02.22 bitrate=   2.7kbits/s speed=0.0404x    frame=  192 fps=3.4 q=39.0 size=       1kB time=00:00:02.28 bitrate=   2.6kbits/s speed=0.0405x    frame=  194 fps=3.4 q=39.0 size=       1kB time=00:00:02.32 bitrate=   2.5kbits/s speed=0.0404x    frame=  198 fps=3.4 q=39.0 size=       1kB time=00:00:02.40 bitrate=   2.5kbits/s speed=0.041x    frame=  200 fps=3.3 q=39.0 size=       1kB time=00:00:02.44 bitrate=   2.4kbits/s speed=0.0407x    frame=  203 fps=3.3 q=39.0 size=       1kB time=00:00:02.50 bitrate=   2.4kbits/s speed=0.0413x    frame=  204 fps=3.3 q=39.0 size=       1kB time=00:00:02.52 bitrate=   2.3kbits/s speed=0.0412x    frame=  206 fps=3.3 q=39.0 size=       1kB time=00:00:02.56 bitrate=   2.3kbits/s speed=0.0412x    frame=  207 fps=3.3 q=39.0 size=       1kB time=00:00:02.58 bitrate=   2.3kbits/s speed=0.0407x    frame=  210 fps=3.3 q=39.0 size=       1kB time=00:00:02.64 bitrate=   2.2kbits/s speed=0.041x    frame=  212 fps=3.3 q=39.0 size=       1kB time=00:00:02.68 bitrate=   2.2kbits/s speed=0.0412x    frame=  213 fps=3.2 q=39.0 size=       1kB time=00:00:02.70 bitrate=   2.2kbits/s speed=0.0408x    frame=  216 fps=3.2 q=39.0 size=       1kB time=00:00:02.76 bitrate=   2.1kbits/s speed=0.041x    frame=  219 fps=3.2 q=38.0 size=       1kB time=00:00:02.82 bitrate=   2.1kbits/s speed=0.0409x    frame=  222 fps=3.2 q=38.0 size=       1kB time=00:00:02.88 bitrate=   2.0kbits/s speed=0.0413x    frame=  225 fps=3.1 q=38.0 size=       1kB time=00:00:02.94 bitrate=   2.0kbits/s speed=0.0411x    frame=  229 fps=3.2 q=38.0 size=       1kB time=00:00:03.02 bitrate=   1.9kbits/s speed=0.0417x    frame=  230 fps=3.1 q=38.0 size=       1kB time=00:00:03.04 bitrate=   1.9kbits/s speed=0.0416x    frame=  231 fps=3.1 q=38.0 size=       1kB time=00:00:03.06 bitrate=   1.9kbits/s speed=0.0416x    frame=  234 fps=3.1 q=38.0 size=       1kB time=00:00:03.12 bitrate=   1.9kbits/s speed=0.0416x    frame=  237 fps=3.1 q=38.0 size=       1kB time=00:00:03.18 bitrate=   1.9kbits/s speed=0.0416x    frame=  240 fps=3.1 q=38.0 size=       1kB time=00:00:03.24 bitrate=   1.8kbits/s speed=0.0416x    frame=  244 fps=3.1 q=38.0 size=       1kB time=00:00:03.32 bitrate=   1.8kbits/s speed=0.0423x    frame=  246 fps=3.1 q=38.0 size=       1kB time=00:00:03.36 bitrate=   1.8kbits/s speed=0.042x    frame=  248 fps=3.1 q=38.0 size=       1kB time=00:00:03.40 bitrate=   1.7kbits/s speed=0.042x    frame=  252 fps=3.1 q=38.0 size=       1kB time=00:00:03.48 bitrate=   1.7kbits/s speed=0.0422x    frame=  254 fps=3.1 q=38.0 size=       1kB time=00:00:03.52 bitrate=   1.7kbits/s speed=0.0423x    frame=  255 fps=3.0 q=38.0 size=       1kB time=00:00:03.54 bitrate=   1.7kbits/s speed=0.0422x    frame=  259 fps=3.0 q=38.0 size=       1kB time=00:00:03.62 bitrate=   1.6kbits/s speed=0.0426x    frame=  261 fps=3.0 q=38.0 size=       1kB time=00:00:03.66 bitrate=   1.6kbits/s speed=0.0421x    frame=  267 fps=3.0 q=38.0 size=       1kB time=00:00:03.78 bitrate=   1.6kbits/s speed=0.0426x    frame=  268 fps=3.0 q=38.0 size=       1kB time=00:00:03.80 bitrate=   1.5kbits/s speed=0.0425x    frame=  270 fps=3.0 q=38.0 size=       1kB time=00:00:03.84 bitrate=   1.5kbits/s speed=0.0424x    frame=  273 fps=3.0 q=38.0 size=       1kB time=00:00:03.90 bitrate=   1.5kbits/s speed=0.0428x    frame=  276 fps=3.0 q=38.0 size=       1kB time=00:00:03.96 bitrate=   1.5kbits/s speed=0.0426x    frame=  279 fps=3.0 q=38.0 size=       1kB time=00:00:04.02 bitrate=   1.5kbits/s speed=0.0426x    frame=  282 fps=3.0 q=38.0 size=       1kB time=00:00:04.08 bitrate=   1.4kbits/s speed=0.0427x    frame=  285 fps=2.9 q=38.0 size=       1kB time=00:00:04.14 bitrate=   1.4kbits/s speed=0.0427x    frame=  288 fps=2.9 q=38.0 size=       1kB time=00:00:04.20 bitrate=   1.4kbits/s speed=0.0426x    frame=  291 fps=2.9 q=38.0 size=       1kB time=00:00:04.26 bitrate=   1.4kbits/s speed=0.043x    frame=  294 fps=2.9 q=38.0 size=       1kB time=00:00:04.32 bitrate=   1.4kbits/s speed=0.0429x    frame=  296 fps=2.9 q=38.0 size=       1kB time=00:00:04.36 bitrate=   1.4kbits/s speed=0.0426x    frame=  300 fps=2.9 q=38.0 size=       1kB time=00:00:04.44 bitrate=   1.3kbits/s speed=0.0431x    frame=  302 fps=2.9 q=38.0 size=       1kB time=00:00:04.48 bitrate=   1.3kbits/s speed=0.0429x    frame=  304 fps=2.9 q=38.0 size=       1kB time=00:00:04.52 bitrate=   1.3kbits/s speed=0.0428x    frame=  306 fps=2.9 q=38.0 size=       1kB time=00:00:04.56 bitrate=   1.3kbits/s speed=0.0429x    frame=  308 fps=2.9 q=38.0 size=       1kB time=00:00:04.60 bitrate=   1.3kbits/s speed=0.0428x    frame=  311 fps=2.9 q=38.0 size=       1kB time=00:00:04.66 bitrate=   1.3kbits/s speed=0.0428x    frame=  313 fps=2.8 q=38.0 size=       1kB time=00:00:04.70 bitrate=   1.3kbits/s speed=0.0421x    frame=  318 fps=2.8 q=38.0 size=       1kB time=00:00:04.80 bitrate=   1.2kbits/s speed=0.0425x    frame=  319 fps=2.8 q=38.0 size=       1kB time=00:00:04.82 bitrate=   1.2kbits/s speed=0.0423x    frame=  324 fps=2.8 q=39.0 size=       1kB time=00:00:04.92 bitrate=   1.2kbits/s speed=0.0429x    frame=  325 fps=2.8 q=39.0 size=    2172kB time=00:00:04.94 bitrate=3601.6kbits/s speed=0.0428x    frame=  328 fps=2.8 q=39.0 size=    2172kB time=00:00:05.00 bitrate=3558.4kbits/s speed=0.0431x    frame=  331 fps=2.8 q=39.0 size=    2172kB time=00:00:05.06 bitrate=3516.2kbits/s speed=0.0432x    frame=  336 fps=2.9 q=39.0 size=    2172kB time=00:00:05.16 bitrate=3448.1kbits/s speed=0.0438x    frame=  338 fps=2.8 q=39.0 size=    2172kB time=00:00:05.20 bitrate=3421.5kbits/s speed=0.0438x    frame=  340 fps=2.8 q=39.0 size=    2172kB time=00:00:05.24 bitrate=3395.4kbits/s speed=0.0436x    frame=  345 fps=2.8 q=39.0 size=    2172kB time=00:00:05.34 bitrate=3331.8kbits/s speed=0.0441x    frame=  347 fps=2.8 q=39.0 size=    2172kB time=00:00:05.38 bitrate=3307.1kbits/s speed=0.0442x    frame=  349 fps=2.8 q=39.0 size=    2172kB time=00:00:05.42 bitrate=3282.7kbits/s speed=0.044x    frame=  354 fps=2.9 q=39.0 size=    2172kB time=00:00:05.52 bitrate=3223.2kbits/s speed=0.0445x    frame=  355 fps=2.8 q=39.0 size=    2172kB time=00:00:05.54 bitrate=3211.6kbits/s speed=0.0443x    frame=  358 fps=2.8 q=39.0 size=    2172kB time=00:00:05.60 bitrate=3177.2kbits/s speed=0.0444x    frame=  363 fps=2.8 q=39.0 size=    2172kB time=00:00:05.70 bitrate=3121.5kbits/s speed=0.0446x    frame=  364 fps=2.8 q=39.0 size=    2172kB time=00:00:05.72 bitrate=3110.5kbits/s speed=0.0445x    frame=  367 fps=2.8 q=39.0 size=    2172kB time=00:00:05.78 bitrate=3078.3kbits/s speed=0.0448x    frame=  370 fps=2.8 q=39.0 size=    2172kB time=00:00:05.84 bitrate=3046.6kbits/s speed=0.0449x    frame=  372 fps=2.8 q=39.0 size=    2172kB time=00:00:05.88 bitrate=3025.9kbits/s speed=0.0449x    frame=  373 fps=2.8 q=39.0 size=    2172kB time=00:00:05.90 bitrate=3015.7kbits/s speed=0.0449x    frame=  374 fps=2.8 q=39.0 size=    2172kB time=00:00:05.92 bitrate=3005.5kbits/s speed=0.0448x    frame=  378 fps=2.8 q=39.0 size=    2172kB time=00:00:06.00 bitrate=2965.4kbits/s speed=0.0447x    frame=  380 fps=2.8 q=39.0 size=    2172kB time=00:00:06.04 bitrate=2945.8kbits/s speed=0.0447x    frame=  384 fps=2.8 q=39.0 size=    2172kB time=00:00:06.12 bitrate=2907.3kbits/s speed=0.0448x    frame=  385 fps=2.8 q=39.0 size=    2172kB time=00:00:06.14 bitrate=2897.8kbits/s speed=0.0448x    frame=  387 fps=2.8 q=39.0 size=    2172kB time=00:00:06.18 bitrate=2879.0kbits/s speed=0.0449x    frame=  389 fps=2.8 q=39.0 size=    2172kB time=00:00:06.22 bitrate=2860.5kbits/s speed=0.045x    frame=  390 fps=2.8 q=39.0 size=    2172kB time=00:00:06.24 bitrate=2851.4kbits/s speed=0.0448x    frame=  392 fps=2.8 q=39.0 size=    2172kB time=00:00:06.28 bitrate=2833.2kbits/s speed=0.0448x    frame=  395 fps=2.8 q=39.0 size=    2172kB time=00:00:06.34 bitrate=2806.4kbits/s speed=0.045x    frame=  396 fps=2.8 q=39.0 size=    2172kB time=00:00:06.36 bitrate=2797.6kbits/s speed=0.0448x    frame=  398 fps=2.8 q=39.0 size=    2172kB time=00:00:06.40 bitrate=2780.1kbits/s speed=0.0448x    frame=  399 fps=2.8 q=39.0 size=    2172kB time=00:00:06.42 bitrate=2771.4kbits/s speed=0.0447x    frame=  401 fps=2.8 q=39.0 size=    2172kB time=00:00:06.46 bitrate=2754.3kbits/s speed=0.0447x    frame=  405 fps=2.8 q=39.0 size=    2172kB time=00:00:06.54 bitrate=2720.6kbits/s speed=0.0449x    frame=  407 fps=2.8 q=39.0 size=    2172kB time=00:00:06.58 bitrate=2704.1kbits/s speed=0.0446x    frame=  410 fps=2.8 q=39.0 size=    2172kB time=00:00:06.64 bitrate=2679.6kbits/s speed=0.0447x    frame=  413 fps=2.7 q=39.0 size=    2172kB time=00:00:06.70 bitrate=2655.6kbits/s speed=0.0446x    frame=  416 fps=2.8 q=39.0 size=    2172kB time=00:00:06.76 bitrate=2632.1kbits/s speed=0.0448x    frame=  419 fps=2.7 q=39.0 size=    2172kB time=00:00:06.82 bitrate=2608.9kbits/s speed=0.0445x    frame=  425 fps=2.7 q=39.0 size=    2172kB time=00:00:06.94 bitrate=2563.8kbits/s speed=0.0445x    frame=  428 fps=2.7 q=39.0 size=    2172kB time=00:00:07.00 bitrate=2541.8kbits/s speed=0.0447x    frame=  431 fps=2.7 q=39.0 size=    2172kB time=00:00:07.06 bitrate=2520.2kbits/s speed=0.0445x    frame=  435 fps=2.7 q=39.0 size=    2172kB time=00:00:07.14 bitrate=2492.0kbits/s speed=0.0447x    frame=  437 fps=2.7 q=39.0 size=    2172kB time=00:00:07.18 bitrate=2478.1kbits/s speed=0.0445x    frame=  443 fps=2.7 q=39.0 size=    2172kB time=00:00:07.30 bitrate=2437.4kbits/s speed=0.0446x    frame=  444 fps=2.7 q=39.0 size=    2172kB time=00:00:07.32 bitrate=2430.7kbits/s speed=0.0445x    frame=  446 fps=2.7 q=39.0 size=    2172kB time=00:00:07.36 bitrate=2417.5kbits/s speed=0.0445x    frame=  449 fps=2.7 q=39.0 size=    2172kB time=00:00:07.42 bitrate=2398.0kbits/s speed=0.0447x    frame=  450 fps=2.7 q=39.0 size=    2172kB time=00:00:07.44 bitrate=2391.5kbits/s speed=0.0447x    frame=  451 fps=2.7 q=39.0 size=    2172kB time=00:00:07.46 bitrate=2385.1kbits/s speed=0.0445x    frame=  453 fps=2.7 q=39.0 size=    2172kB time=00:00:07.50 bitrate=2372.4kbits/s speed=0.0445x    frame=  457 fps=2.7 q=39.0 size=    2172kB time=00:00:07.58 bitrate=2347.4kbits/s speed=0.0448x    frame=  458 fps=2.7 q=39.0 size=    2172kB time=00:00:07.60 bitrate=2341.2kbits/s speed=0.0444x    frame=  460 fps=2.7 q=39.0 size=    2172kB time=00:00:07.64 bitrate=2328.9kbits/s speed=0.0444x    frame=  464 fps=2.7 q=39.0 size=    2172kB time=00:00:07.72 bitrate=2304.8kbits/s speed=0.0444x    frame=  465 fps=2.7 q=39.0 size=    2172kB time=00:00:07.74 bitrate=2298.9kbits/s speed=0.0444x    frame=  470 fps=2.7 q=39.0 size=    2172kB time=00:00:07.84 bitrate=2269.5kbits/s speed=0.0444x    frame=  473 fps=2.7 q=39.0 size=    2172kB time=00:00:07.90 bitrate=2252.3kbits/s speed=0.0445x    frame=  476 fps=2.7 q=39.0 size=    2172kB time=00:00:07.96 bitrate=2235.3kbits/s speed=0.0445x    frame=  479 fps=2.7 q=39.0 size=    2172kB time=00:00:08.02 bitrate=2218.6kbits/s speed=0.0446x    frame=  480 fps=2.6 q=39.0 size=    2172kB time=00:00:08.04 bitrate=2213.1kbits/s speed=0.0444x    frame=  481 fps=2.6 q=39.0 size=    2172kB time=00:00:08.06 bitrate=2207.6kbits/s speed=0.0443x    frame=  486 fps=2.6 q=39.0 size=    2172kB time=00:00:08.16 bitrate=2180.5kbits/s speed=0.0445x    frame=  487 fps=2.6 q=39.0 size=    2172kB time=00:00:08.18 bitrate=2175.2kbits/s speed=0.0443x    frame=  490 fps=2.6 q=39.0 size=    2172kB time=00:00:08.24 bitrate=2159.4kbits/s speed=0.0445x    frame=  492 fps=2.6 q=39.0 size=    2172kB time=00:00:08.28 bitrate=2148.9kbits/s speed=0.0445x    frame=  493 fps=2.6 q=39.0 size=    2172kB time=00:00:08.30 bitrate=2143.8kbits/s speed=0.0443x    frame=  496 fps=2.6 q=39.0 size=    2172kB time=00:00:08.36 bitrate=2128.4kbits/s speed=0.0445x    frame=  497 fps=2.6 q=39.0 size=    2172kB time=00:00:08.38 bitrate=2123.3kbits/s speed=0.0445x    frame=  499 fps=2.6 q=39.0 size=    2172kB time=00:00:08.42 bitrate=2113.2kbits/s speed=0.0443x    frame=  500 fps=2.3 q=-1.0 Lsize=    4880kB time=00:00:09.94 bitrate=4021.8kbits/s speed=0.045x    
video:4876kB audio:0kB subtitle:0kB other streams:0kB global headers:0kB muxing overhead: 0.088581%
bench: utime=825.148s
bench: maxrss=3687764kB
[libx264 @ 0x3f32120] frame I:3     Avg QP:36.31  size:158949
[libx264 @ 0x3f32120] frame P:63    Avg QP:38.19  size: 22294
[libx264 @ 0x3f32120] frame B:434   Avg QP:40.11  size:  7168
[libx264 @ 0x3f32120] consecutive B-frames:  0.8%  0.0%  0.0%  1.6%  4.0%  3.6% 11.2% 17.6% 61.2%
[libx264 @ 0x3f32120] mb I  I16..4: 40.3% 52.8%  7.0%
[libx264 @ 0x3f32120] mb P  I16..4:  0.1%  0.2%  0.0%  P16..4: 25.0%  1.3%  3.8%  0.0%  0.0%    skip:69.6%
[libx264 @ 0x3f32120] mb B  I16..4:  0.0%  0.0%  0.0%  B16..8: 28.1%  0.1%  0.0%  direct: 0.0%  skip:71.8%  L0:46.8% L1:53.2% BI: 0.0%
[libx264 @ 0x3f32120] final ratefactor: 31.10
[libx264 @ 0x3f32120] 8x8 transform intra:53.5% inter:84.0%
[libx264 @ 0x3f32120] direct mvs  spatial:99.1% temporal:0.9%
[libx264 @ 0x3f32120] coded y,uvDC,uvAC intra: 42.0% 29.6% 8.9% inter: 0.4% 0.4% 0.0%
[libx264 @ 0x3f32120] i16 v,h,dc,p:  6% 19%  2% 73%
[libx264 @ 0x3f32120] i8 v,h,dc,ddl,ddr,vr,hd,vl,hu:  6%  5% 12% 11% 18% 11% 18%  7% 12%
[libx264 @ 0x3f32120] i4 v,h,dc,ddl,ddr,vr,hd,vl,hu:  4%  4%  9% 13% 18% 12% 18%  8% 14%
[libx264 @ 0x3f32120] i8c dc,h,v,p: 13% 68% 11%  8%
[libx264 @ 0x3f32120] Weighted P-Frames: Y:3.2% UV:1.6%
[libx264 @ 0x3f32120] ref P L0: 67.3% 21.1%  6.5%  1.3%  1.0%  0.8%  0.7%  0.2%  0.2%  0.2%  0.2%  0.1%  0.1%  0.2%  0.2%  0.1%
[libx264 @ 0x3f32120] ref B L0: 92.7%  4.0%  2.1%  0.3%  0.3%  0.2%  0.2%  0.0%  0.0%  0.0%  0.0%  0.0%  0.1%  0.1%  0.0%
[libx264 @ 0x3f32120] ref B L1: 97.8%  2.2%
[libx264 @ 0x3f32120] kb/s:3993.96
